<svg width="800" height="428" viewBox="0 0 800 428" fill="none" xmlns="http://www.w3.org/2000/svg">
<g filter="url(#filter0_d)">
<rect x="63" y="62" width="672" height="300" rx="50" fill="white"/>
<path d="M413 255L414 313" stroke="#76C3BD" stroke-width="15" stroke-linecap="round" stroke-linejoin="round"/>
<path d="M128 282L129 319" stroke="#76C3BD" stroke-width="15" stroke-linecap="round" stroke-linejoin="round"/>
<path d="M199 255L200 313" stroke="#76C3BD" stroke-width="15" stroke-linecap="round" stroke-linejoin="round"/>
<path d="M273 228L274 318" stroke="#76C3BD" stroke-width="15" stroke-linecap="round" stroke-linejoin="round"/>
<path d="M344 278L345 315" stroke="#76C3BD" stroke-width="15" stroke-linecap="round" stroke-linejoin="round"/>
<path d="M480 221L481 319" stroke="#76C3BD" stroke-width="15" stroke-linecap="round" stroke-linejoin="round"/>
<path d="M553 271L554 311" stroke="#76C3BD" stroke-width="15" stroke-linecap="round" stroke-linejoin="round"/>
<path d="M619 253L620 316" stroke="#76C3BD" stroke-width="15" stroke-linecap="round" stroke-linejoin="round"/>
<path d="M683 210L684 315" stroke="#76C3BD" stroke-width="15" stroke-linecap="round" stroke-linejoin="round"/>
<path d="M135.406 145.281C135.406 143.281 134.698 141.74 133.281 140.656C131.885 139.573 129.354 138.479 125.688 137.375C122.021 136.271 119.104 135.042 116.938 133.688C112.792 131.083 110.719 127.688 110.719 123.5C110.719 119.833 112.208 116.812 115.188 114.438C118.188 112.062 122.073 110.875 126.844 110.875C130.01 110.875 132.833 111.458 135.312 112.625C137.792 113.792 139.74 115.458 141.156 117.625C142.573 119.771 143.281 122.156 143.281 124.781H135.406C135.406 122.406 134.656 120.552 133.156 119.219C131.677 117.865 129.552 117.188 126.781 117.188C124.198 117.188 122.188 117.74 120.75 118.844C119.333 119.948 118.625 121.49 118.625 123.469C118.625 125.135 119.396 126.531 120.938 127.656C122.479 128.76 125.021 129.844 128.562 130.906C132.104 131.948 134.948 133.146 137.094 134.5C139.24 135.833 140.812 137.375 141.812 139.125C142.812 140.854 143.312 142.885 143.312 145.219C143.312 149.01 141.854 152.031 138.938 154.281C136.042 156.51 132.104 157.625 127.125 157.625C123.833 157.625 120.802 157.021 118.031 155.812C115.281 154.583 113.135 152.896 111.594 150.75C110.073 148.604 109.312 146.104 109.312 143.25H117.219C117.219 145.833 118.073 147.833 119.781 149.25C121.49 150.667 123.938 151.375 127.125 151.375C129.875 151.375 131.938 150.823 133.312 149.719C134.708 148.594 135.406 147.115 135.406 145.281ZM160.5 142.5L157.125 145.969V157H149.531V109H157.125V136.688L159.5 133.719L168.844 123.188H177.969L165.406 137.281L179.312 157H170.531L160.5 142.5ZM191.031 157H183.438V123.188H191.031V157ZM182.969 114.406C182.969 113.24 183.333 112.271 184.062 111.5C184.812 110.729 185.875 110.344 187.25 110.344C188.625 110.344 189.688 110.729 190.438 111.5C191.188 112.271 191.562 113.24 191.562 114.406C191.562 115.552 191.188 116.51 190.438 117.281C189.688 118.031 188.625 118.406 187.25 118.406C185.875 118.406 184.812 118.031 184.062 117.281C183.333 116.51 182.969 115.552 182.969 114.406ZM207.406 157H199.812V109H207.406V157ZM223.781 157H216.188V109H223.781V157ZM251.031 147.812C251.031 146.458 250.469 145.427 249.344 144.719C248.24 144.01 246.396 143.385 243.812 142.844C241.229 142.302 239.073 141.615 237.344 140.781C233.552 138.948 231.656 136.292 231.656 132.812C231.656 129.896 232.885 127.458 235.344 125.5C237.802 123.542 240.927 122.562 244.719 122.562C248.76 122.562 252.021 123.562 254.5 125.562C257 127.562 258.25 130.156 258.25 133.344H250.656C250.656 131.885 250.115 130.677 249.031 129.719C247.948 128.74 246.51 128.25 244.719 128.25C243.052 128.25 241.688 128.635 240.625 129.406C239.583 130.177 239.062 131.208 239.062 132.5C239.062 133.667 239.552 134.573 240.531 135.219C241.51 135.865 243.49 136.521 246.469 137.188C249.448 137.833 251.781 138.615 253.469 139.531C255.177 140.427 256.438 141.51 257.25 142.781C258.083 144.052 258.5 145.594 258.5 147.406C258.5 150.448 257.24 152.917 254.719 154.812C252.198 156.688 248.896 157.625 244.812 157.625C242.042 157.625 239.573 157.125 237.406 156.125C235.24 155.125 233.552 153.75 232.344 152C231.135 150.25 230.531 148.365 230.531 146.344H237.906C238.01 148.135 238.688 149.521 239.938 150.5C241.188 151.458 242.844 151.938 244.906 151.938C246.906 151.938 248.427 151.562 249.469 150.812C250.51 150.042 251.031 149.042 251.031 147.812Z" fill="black"/>
</g>
<defs>
<filter id="filter0_d" x="0" y="0" width="800" height="428" filterUnits="userSpaceOnUse" color-interpolation-filters="sRGB">
<feFlood flood-opacity="0" result="BackgroundImageFix"/>
<feColorMatrix in="SourceAlpha" type="matrix" values="0 0 0 0 0 0 0 0 0 0 0 0 0 0 0 0 0 0 127 0"/>
<feMorphology radius="2" operator="dilate" in="SourceAlpha" result="effect1_dropShadow"/>
<feOffset dx="1" dy="2"/>
<feGaussianBlur stdDeviation="31"/>
<feColorMatrix type="matrix" values="0 0 0 0 0 0 0 0 0 0 0 0 0 0 0 0 0 0 0.1 0"/>
<feBlend mode="normal" in2="BackgroundImageFix" result="effect1_dropShadow"/>
<feBlend mode="normal" in="SourceGraphic" in2="effect1_dropShadow" result="shape"/>
</filter>
</defs>
</svg>
